<svg 
    width="95" 
    height="95" 
    viewBox="0 0 95 95" 
    fill="none" 
    xmlns="http://www.w3.org/2000/svg">
    <path d="M7.91667 11.875H31.6667C35.8659 11.875 39.8932 13.5431 42.8625 16.5125C45.8319 19.4818 47.5 23.5091 47.5 27.7083V83.125C47.5 79.9756 46.2489 76.9551 44.0219 74.7281C41.7949 72.5011 38.7745 71.25 35.625 71.25H7.91667V11.875Z" 
        stroke="black" 
        stroke-width="2" 
        stroke-linecap="round" 
        stroke-linejoin="round"
    />
    <path d="M87.0833 11.875H63.3333C59.1341 11.875 55.1068 13.5431 52.1375 16.5125C49.1681 19.4818 47.5 23.5091 47.5 27.7083V83.125C47.5 79.9756 48.7511 76.9551 50.9781 74.7281C53.2051 72.5011 56.2256 71.25 59.375 71.25H87.0833V11.875Z" 
        stroke="black" 
        stroke-width="2" 
        stroke-linecap="round" 
        stroke-linejoin="round"
    />
</svg>
