<svg 
    width="377" 
    height="273" 
    viewBox="0 0 377 273" 
    fill="none" 
    xmlns="http://www.w3.org/2000/svg">
    <path d="M240.243 204.66V270.469H75.2051C56.4012 270.469 41.1022 255.707 41.1022 237.564C41.1022 219.421 56.4012 204.66 75.2051 204.66H240.243Z" 
        fill="#F2F2F2"/>
    <path d="M244.297 269.963C244.297 270.634 244.03 271.277 243.555 271.752C243.08 272.227 242.435 272.493 241.764 272.494H72.2655C63.0598 272.494 54.2311 268.84 47.7216 262.337C41.2122 255.834 37.5552 247.014 37.5552 237.817C37.5552 228.621 41.2122 219.801 47.7216 213.297C54.2311 206.794 63.0598 203.141 72.2655 203.141H241.764C242.435 203.141 243.08 203.408 243.555 203.882C244.03 204.357 244.297 205.001 244.297 205.672C244.297 206.343 244.03 206.987 243.555 207.462C243.08 207.937 242.435 208.203 241.764 208.203H72.2655C64.4037 208.203 56.8638 211.323 51.3047 216.877C45.7455 222.431 42.6224 229.963 42.6224 237.817C42.6224 245.672 45.7455 253.204 51.3047 258.758C56.8638 264.311 64.4037 267.431 72.2655 267.431H241.764C242.435 267.432 243.08 267.699 243.555 268.173C244.03 268.648 244.297 269.291 244.297 269.963Z" 
        fill="#19BA3C"/>
    <path d="M240.243 219.846H62.8912C62.7568 219.846 62.6279 219.793 62.5329 219.698C62.4379 219.603 62.3845 219.474 62.3845 219.34C62.3845 219.206 62.4379 219.077 62.5329 218.982C62.6279 218.887 62.7568 218.834 62.8912 218.834H240.243C240.378 218.834 240.507 218.887 240.602 218.982C240.697 219.077 240.75 219.206 240.75 219.34C240.75 219.474 240.697 219.603 240.602 219.698C240.507 219.793 240.378 219.846 240.243 219.846Z" 
        fill="#CCCCCC"/>
    <path d="M240.243 231.996H62.8912C62.7568 231.996 62.6279 231.942 62.5329 231.848C62.4379 231.753 62.3845 231.624 62.3845 231.49C62.3845 231.355 62.4379 231.227 62.5329 231.132C62.6279 231.037 62.7568 230.983 62.8912 230.983H240.243C240.378 230.983 240.507 231.037 240.602 231.132C240.697 231.227 240.75 231.355 240.75 231.49C240.75 231.624 240.697 231.753 240.602 231.848C240.507 231.942 240.378 231.996 240.243 231.996Z" 
        fill="#CCCCCC"/>
    <path d="M240.243 244.145H62.8912C62.7568 244.145 62.6279 244.092 62.5329 243.997C62.4379 243.902 62.3845 243.773 62.3845 243.639C62.3845 243.505 62.4379 243.376 62.5329 243.281C62.6279 243.186 62.7568 243.133 62.8912 243.133H240.243C240.378 243.133 240.507 243.186 240.602 243.281C240.697 243.376 240.75 243.505 240.75 243.639C240.75 243.773 240.697 243.902 240.602 243.997C240.507 244.092 240.378 244.145 240.243 244.145Z" 
        fill="#CCCCCC"/>
    <path d="M240.243 256.295H62.8912C62.7568 256.295 62.6279 256.241 62.5329 256.146C62.4379 256.051 62.3845 255.923 62.3845 255.788C62.3845 255.654 62.4379 255.525 62.5329 255.43C62.6279 255.336 62.7568 255.282 62.8912 255.282H240.243C240.378 255.282 240.507 255.336 240.602 255.43C240.697 255.525 240.75 255.654 240.75 255.788C240.75 255.923 240.697 256.051 240.602 256.146C240.507 256.241 240.378 256.295 240.243 256.295Z" 
        fill="#CCCCCC"/>
    <path d="M367.794 217.047L326.463 268.292L197.951 164.845C183.309 153.058 180.667 131.974 192.061 117.846C203.456 103.719 224.639 101.814 239.282 113.6L367.794 217.047Z" 
        fill="#F2F2F2"/>
    <path d="M329.938 270.438C329.516 270.961 328.904 271.295 328.236 271.367C327.568 271.438 326.899 271.242 326.375 270.821L194.39 164.579C187.222 158.809 182.642 150.43 181.657 141.286C180.673 132.142 183.364 122.982 189.14 115.82C194.916 108.659 203.303 104.083 212.456 103.099C221.609 102.116 230.778 104.805 237.946 110.575L369.931 216.818C370.19 217.026 370.406 217.284 370.566 217.575C370.725 217.867 370.826 218.188 370.862 218.518C370.897 218.849 370.868 219.183 370.774 219.502C370.68 219.821 370.524 220.119 370.316 220.378C370.107 220.637 369.849 220.852 369.557 221.011C369.265 221.17 368.944 221.271 368.613 221.306C368.282 221.342 367.947 221.312 367.628 221.218C367.309 221.124 367.011 220.968 366.752 220.76L234.767 114.517C231.736 112.075 228.253 110.254 224.517 109.157C220.782 108.06 216.866 107.709 212.995 108.125C209.123 108.54 205.371 109.713 201.954 111.577C198.536 113.442 195.52 115.96 193.077 118.989C190.634 122.018 188.812 125.498 187.716 129.231C186.619 132.963 186.27 136.875 186.687 140.743C187.104 144.61 188.28 148.358 190.147 151.771C192.015 155.185 194.537 158.197 197.57 160.637L329.554 266.879C330.077 267.301 330.412 267.912 330.483 268.58C330.555 269.247 330.359 269.916 329.938 270.438Z"
        fill="#19BA3C"/>
    <path d="M358.256 228.873L220.155 117.707C220.103 117.666 220.06 117.614 220.028 117.556C219.997 117.498 219.976 117.433 219.969 117.367C219.962 117.301 219.968 117.234 219.987 117.171C220.006 117.107 220.037 117.047 220.079 116.996C220.12 116.944 220.172 116.901 220.23 116.869C220.289 116.837 220.353 116.817 220.419 116.81C220.485 116.803 220.552 116.809 220.616 116.827C220.68 116.846 220.739 116.877 220.791 116.919L358.892 228.085C358.944 228.126 358.987 228.178 359.019 228.236C359.051 228.295 359.071 228.359 359.078 228.425C359.085 228.491 359.079 228.558 359.061 228.622C359.042 228.686 359.011 228.745 358.969 228.797C358.927 228.849 358.875 228.892 358.817 228.924C358.759 228.956 358.694 228.976 358.628 228.983C358.562 228.99 358.495 228.984 358.431 228.965C358.367 228.946 358.308 228.915 358.256 228.873V228.873Z" 
        fill="#CCCCCC"/>
    <path d="M350.626 238.334L212.525 127.168C212.421 127.084 212.354 126.961 212.34 126.828C212.325 126.695 212.365 126.561 212.449 126.457C212.533 126.352 212.655 126.285 212.789 126.271C212.922 126.256 213.056 126.296 213.161 126.38L351.261 237.545C351.313 237.587 351.357 237.638 351.389 237.697C351.421 237.755 351.441 237.819 351.448 237.885C351.455 237.951 351.449 238.018 351.43 238.082C351.412 238.146 351.38 238.206 351.339 238.257C351.297 238.309 351.245 238.352 351.187 238.384C351.128 238.416 351.064 238.436 350.998 238.443C350.932 238.45 350.865 238.444 350.801 238.425C350.737 238.407 350.677 238.375 350.626 238.334Z" 
        fill="#CCCCCC"/>
    <path d="M342.995 247.794L204.895 136.628C204.79 136.544 204.723 136.422 204.709 136.288C204.694 136.155 204.734 136.021 204.818 135.917C204.902 135.812 205.025 135.745 205.158 135.731C205.292 135.717 205.426 135.756 205.531 135.84L343.631 247.006C343.683 247.047 343.726 247.099 343.758 247.157C343.79 247.216 343.81 247.28 343.817 247.346C343.824 247.412 343.818 247.479 343.8 247.542C343.781 247.606 343.75 247.666 343.708 247.717C343.666 247.769 343.615 247.812 343.556 247.844C343.498 247.876 343.434 247.896 343.368 247.903C343.301 247.91 343.234 247.904 343.171 247.886C343.107 247.867 343.047 247.836 342.995 247.794V247.794Z" 
        fill="#CCCCCC"/>
    <path d="M335.365 257.255L197.265 146.089C197.213 146.047 197.17 145.996 197.138 145.937C197.106 145.879 197.086 145.815 197.079 145.749C197.072 145.683 197.078 145.616 197.096 145.552C197.115 145.488 197.146 145.429 197.188 145.377C197.23 145.325 197.281 145.282 197.34 145.25C197.398 145.219 197.462 145.199 197.528 145.191C197.594 145.184 197.661 145.19 197.725 145.209C197.789 145.228 197.849 145.259 197.9 145.301L336.001 256.466C336.053 256.508 336.096 256.559 336.128 256.618C336.16 256.676 336.18 256.74 336.187 256.806C336.194 256.872 336.189 256.939 336.17 257.003C336.151 257.067 336.12 257.127 336.078 257.178C336.036 257.23 335.985 257.273 335.926 257.305C335.868 257.337 335.804 257.357 335.737 257.364C335.671 257.371 335.604 257.365 335.54 257.346C335.476 257.328 335.417 257.296 335.365 257.255Z" 
        fill="#CCCCCC"/>
    <path d="M171.313 197.743L165.52 197.742L162.765 175.42L171.315 175.421L171.313 197.743Z" 
        fill="#FFB8B8"/>
    <path d="M161.382 196.089H172.554V203.116H154.347C154.347 202.193 154.529 201.279 154.883 200.427C155.236 199.574 155.754 198.799 156.408 198.147C157.061 197.494 157.836 196.977 158.69 196.623C159.543 196.27 160.458 196.089 161.382 196.089Z" 
        fill="#2F2E41"/>
    <path d="M112.13 197.743L106.337 197.742L103.582 175.42L112.132 175.421L112.13 197.743Z" 
        fill="#FFB8B8"/>
    <path d="M102.199 196.089H113.371V203.116H95.1651C95.1651 202.193 95.347 201.279 95.7006 200.427C96.0541 199.574 96.5722 198.799 97.2254 198.147C97.8786 197.494 98.654 196.977 99.5075 196.623C100.361 196.27 101.276 196.089 102.199 196.089Z" 
        fill="#2F2E41"/>
    <path d="M131.479 32.162V29.6308C131.479 25.301 133.201 21.1485 136.266 18.0868C139.33 15.0251 143.487 13.3051 147.821 13.3051H147.821C152.155 13.3051 156.312 15.0251 159.376 18.0868C162.441 21.1485 164.163 25.301 164.163 29.6308V32.162C164.163 35.2835 162.921 38.2772 160.712 40.4845C158.503 42.6917 155.506 43.9317 152.381 43.9317H143.26C141.713 43.9317 140.181 43.6273 138.752 43.0358C137.323 42.4443 136.024 41.5774 134.93 40.4845C133.836 39.3915 132.968 38.0941 132.376 36.6661C131.784 35.2381 131.479 33.7076 131.479 32.162Z" 
        fill="#2F2E41"/>
    <path d="M147.821 44.8027C154.694 44.8027 160.266 39.236 160.266 32.3693C160.266 25.5025 154.694 19.9359 147.821 19.9359C140.947 19.9359 135.375 25.5025 135.375 32.3693C135.375 39.236 140.947 44.8027 147.821 44.8027Z" 
        fill="#FFB8B8"/>
    <path d="M80.125 75.1013C80.63 74.6248 81.2335 74.2648 81.8929 74.0466C82.5523 73.8283 83.2516 73.7572 83.9414 73.8382C84.6313 73.9191 85.2951 74.1502 85.8859 74.5152C86.4767 74.8801 86.9803 75.37 87.3611 75.9504L98.0299 73.9343L100.838 80.1125L85.7311 82.7483C84.7127 83.3228 83.5188 83.504 82.3756 83.2578C81.2323 83.0116 80.2192 82.355 79.5281 81.4124C78.8371 80.4698 78.5162 79.3067 78.6262 78.1435C78.7362 76.9804 79.2695 75.8979 80.125 75.1012V75.1013Z" 
        fill="#FFB8B8"/>
    <path d="M138.118 52.6328L138.258 52.844L120.763 64.3578L91.242 73.7752C90.8507 73.9009 90.515 74.1581 90.2922 74.5031C90.0693 74.8482 89.9731 75.2597 90.0198 75.6677L90.6638 81.2091C90.6923 81.4544 90.7719 81.691 90.8973 81.9037C91.0228 82.1164 91.1913 82.3006 91.3922 82.4445C91.5931 82.5884 91.8218 82.6887 92.0637 82.7391C92.3057 82.7895 92.5555 82.7888 92.7972 82.7371L120.581 76.7876C121.925 76.5013 123.197 75.9421 124.316 75.1446L143.97 61.1744C144.683 60.6652 145.251 59.9805 145.621 59.1868C145.99 58.3931 146.147 57.5174 146.078 56.645C146.005 55.7713 145.707 54.9315 145.211 54.2081C144.716 53.4846 144.04 52.9025 143.251 52.519C142.462 52.1355 141.587 51.9638 140.711 52.0208C139.836 52.0778 138.99 52.3615 138.258 52.844L138.118 52.6328Z" 
        fill="#19BA3C"/>
    <path d="M165.623 191.408C165.179 191.408 164.744 191.279 164.371 191.036C163.999 190.793 163.705 190.447 163.527 190.041L136.969 124.484C136.907 124.342 136.803 124.222 136.671 124.141C136.539 124.059 136.385 124.02 136.23 124.029C136.075 124.038 135.926 124.094 135.804 124.189C135.682 124.285 135.592 124.416 135.546 124.564L113.88 188.386C113.788 188.683 113.637 188.958 113.435 189.194C113.233 189.431 112.985 189.624 112.706 189.761C112.427 189.898 112.122 189.976 111.812 189.992C111.501 190.007 111.191 189.958 110.899 189.849L103.634 187.127C103.239 186.981 102.893 186.728 102.634 186.397C102.375 186.066 102.213 185.67 102.166 185.252C98.8973 156.806 127.401 85.0044 127.689 84.2826L127.769 84.0827L153.752 89.8247L153.806 89.8835C164.172 101.181 172.693 172.44 174.296 186.61C174.356 187.122 174.239 187.639 173.966 188.075C173.692 188.512 173.277 188.843 172.791 189.013L166.377 191.279C166.135 191.364 165.88 191.408 165.623 191.408Z" 
        fill="#2F2E41"/>
    <path d="M143.236 92.1358C136.941 92.1358 129.922 90.8819 127.762 85.7064L127.712 85.5875L127.779 85.4773C129.484 82.6822 131.738 77.9141 130.527 77.019C128.141 75.2564 126.983 72.3567 127.085 68.4003C127.309 59.8118 133.166 52.1865 141.662 49.4258H141.662C144.033 48.6677 146.446 48.0469 148.889 47.5667C150.67 47.2077 152.509 47.2472 154.272 47.6824C156.036 48.1175 157.682 48.9376 159.091 50.0835C160.517 51.237 161.671 52.6919 162.468 54.3436C163.264 55.9953 163.685 57.8028 163.7 59.6363C163.789 68.8146 162.374 81.598 155.13 90.3744C154.791 90.7816 154.318 91.0561 153.796 91.1496C150.311 91.7794 146.778 92.1093 143.236 92.1358Z" 
        fill="#19BA3C"/>
    <path d="M140.894 91.7921C141.237 90.5644 142.051 89.5213 143.159 88.8896C144.267 88.2579 145.58 88.0886 146.812 88.4185C147.063 88.4888 147.309 88.5796 147.546 88.69L155.646 81.325L161.28 85.1168L149.696 95.3582C149.172 96.3004 148.349 97.0408 147.356 97.4615C146.363 97.8823 145.258 97.9592 144.216 97.68C143.609 97.5141 143.042 97.2297 142.545 96.8432C142.049 96.4567 141.635 95.9758 141.326 95.4283C141.017 94.8808 140.82 94.2775 140.746 93.6534C140.672 93.0292 140.722 92.3966 140.894 91.7921Z" 
        fill="#FFB8B8"/>
    <path d="M154.363 91.8856C153.838 91.886 153.328 91.7044 152.921 91.3717L149.727 88.7638C149.46 88.5463 149.247 88.2716 149.102 87.96C148.957 87.6484 148.884 87.3082 148.89 86.9646C148.895 86.6211 148.978 86.2832 149.133 85.9763C149.287 85.6694 149.509 85.4013 149.782 85.1922L163.181 74.9261C163.339 74.8038 163.443 74.6239 163.47 74.4254C163.497 74.2269 163.445 74.0258 163.324 73.8657L155.054 62.9433C154.094 61.6786 153.612 60.115 153.694 58.5294C153.776 56.9437 154.417 55.4383 155.504 54.2797C156.648 53.0449 158.216 52.2851 159.895 52.1509C161.574 52.0167 163.242 52.5181 164.568 53.5554L164.62 53.6105L173.256 65.9636C174.19 66.6951 174.942 67.6322 175.453 68.702C175.964 69.7718 176.221 70.9451 176.203 72.1305C176.186 73.3158 175.894 74.481 175.351 75.5351C174.808 76.5892 174.029 77.5036 173.073 78.2069L155.721 91.439C155.328 91.7291 154.852 91.8856 154.363 91.8856Z" 
        fill="#19BA3C"/>
    <path d="M136.797 28.8716V22.7026L147.821 17.8935L158.333 22.7026V28.8716C158.333 29.1401 158.226 29.3976 158.036 29.5875C157.846 29.7773 157.588 29.884 157.319 29.884H137.81C137.542 29.884 137.284 29.7773 137.094 29.5875C136.904 29.3976 136.797 29.1401 136.797 28.8716Z" 
        fill="#2F2E41"/>
    <path d="M147.315 14.1235C145.694 8.94052 149.098 3.00057 154.131 0.949005C159.163 -1.10256 165.184 0.331548 169.43 3.72104C173.677 7.11053 176.311 12.1873 177.707 17.4353C179.103 22.6832 179.368 28.1555 179.626 33.5795C185.809 34.7141 190.015 42.0406 187.873 47.9453C185.731 53.8499 177.804 56.7834 172.328 53.6972C166.853 50.611 165.267 42.3149 169.219 37.4303C171.089 35.119 172.133 32.2506 172.187 29.2793C172.241 26.3081 171.301 23.4038 169.516 21.0266C167.731 18.6494 165.203 16.935 162.332 16.1551C159.462 15.3752 156.413 15.5742 153.669 16.7208C150.622 17.9939 146.798 14.6861 147.315 14.1235Z" 
        fill="#2F2E41"/>
    <path d="M77.8394 51.1707C70.4366 51.1221 63.1263 49.5226 56.3808 46.4755C55.9792 46.2967 55.6384 46.0051 55.3998 45.6362C55.1612 45.2673 55.0352 44.8371 55.037 44.3979V25.9622C55.0377 25.3583 55.2782 24.7793 55.7056 24.3522C56.1331 23.9251 56.7127 23.6849 57.3173 23.6842H98.3616C98.9662 23.6849 99.5458 23.9251 99.9732 24.3522C100.401 24.7793 100.641 25.3583 100.642 25.9622V44.398C100.644 44.8371 100.518 45.2674 100.279 45.6362C100.04 46.0051 99.6996 46.2967 99.2981 46.4755C92.5526 49.5226 85.2423 51.1221 77.8394 51.1707Z" 
        fill="#19BA3C"/>
    <path d="M77.8338 36.2355C77.5295 36.2357 77.2282 36.1752 76.9477 36.0575L44.4001 22.339C43.9803 22.1621 43.6233 21.8637 43.3749 21.4822C43.1265 21.1007 42.9983 20.6536 43.0066 20.1986C43.015 19.7435 43.1596 19.3014 43.4218 18.9293C43.6839 18.5571 44.0517 18.2719 44.4776 18.1105L77.0257 5.77497C77.5499 5.57537 78.1296 5.5766 78.6529 5.77843L110.765 18.114C111.188 18.2767 111.554 18.5619 111.814 18.9332C112.074 19.3045 112.218 19.7449 112.226 20.1981C112.235 20.6514 112.107 21.0968 111.861 21.4774C111.615 21.858 111.26 22.1566 110.843 22.3348L78.7306 36.0531C78.4471 36.1737 78.142 36.2358 77.8338 36.2355Z" 
        fill="#19BA3C"/>
    <path d="M58.8374 47.7299C60.5165 47.7299 61.8777 46.37 61.8777 44.6925C61.8777 43.015 60.5165 41.6552 58.8374 41.6552C57.1583 41.6552 55.7971 43.015 55.7971 44.6925C55.7971 46.37 57.1583 47.7299 58.8374 47.7299Z" 
        fill="#3F3D56"/>
    <path opacity="0.2" d="M110.954 20.3876L78.8415 34.1059C78.5911 34.2128 78.3218 34.2683 78.0495 34.2689C77.7772 34.2696 77.5076 34.2154 77.2567 34.1097L44.7091 20.3916C44.3004 20.2234 43.9594 19.924 43.74 19.5406C43.5964 19.7892 43.5075 20.0655 43.4791 20.3511C43.4506 20.6367 43.4833 20.925 43.575 21.197C43.6666 21.469 43.8152 21.7184 44.0107 21.9287C44.2062 22.1389 44.4443 22.3052 44.7091 22.4165L77.2567 36.1346C77.5076 36.2403 77.7772 36.2945 78.0495 36.2938C78.3218 36.2932 78.5911 36.2377 78.8415 36.1308L110.954 22.4125C111.217 22.3002 111.454 22.1334 111.648 21.9231C111.842 21.7127 111.99 21.4636 112.08 21.1922C112.171 20.9208 112.203 20.6332 112.174 20.3485C112.146 20.0638 112.057 19.7884 111.914 19.5406C111.696 19.9209 111.359 20.2187 110.954 20.3876Z" 
        fill="black"/>
    <path d="M59.0929 44.6807C59.2273 44.6807 59.3562 44.6273 59.4512 44.5324C59.5462 44.4375 59.5996 44.3087 59.5996 44.1744V27.2354L76.3118 21.1531C76.4462 21.1551 76.5759 21.1037 76.6724 21.0101C76.7688 20.9166 76.8241 20.7886 76.8261 20.6544C76.8281 20.5201 76.7767 20.3906 76.683 20.2942C76.5894 20.1979 76.4613 20.1426 76.3269 20.1406L59.6147 26.223C59.4802 26.2199 59.3465 26.2441 59.2216 26.2942C59.0968 26.3442 58.9834 26.4191 58.8884 26.5142C58.7923 26.6081 58.7161 26.7204 58.6642 26.8442C58.6123 26.9681 58.5857 27.1011 58.5862 27.2354V44.1744C58.5862 44.3087 58.6396 44.4375 58.7346 44.5324C58.8296 44.6273 58.9585 44.6807 59.0929 44.6807Z" 
        fill="#3F3D56"/>
</svg>
